// === Articulação: Crash2_Edge ===

// --- Mic: Overhead_L ---
<group> seq_position=1 output=6 //  Round-Robin: A
<region> sample=Crash2_Edge_A_vel01_mic-Overhead_L.wav lovel=0 hivel=11
<region> sample=Crash2_Edge_A_vel02_mic-Overhead_L.wav lovel=12 hivel=23
<region> sample=Crash2_Edge_A_vel03_mic-Overhead_L.wav lovel=24 hivel=35
<region> sample=Crash2_Edge_A_vel04_mic-Overhead_L.wav lovel=36 hivel=47
<region> sample=Crash2_Edge_A_vel05_mic-Overhead_L.wav lovel=48 hivel=59
<region> sample=Crash2_Edge_A_vel06_mic-Overhead_L.wav lovel=60 hivel=71
<region> sample=Crash2_Edge_A_vel07_mic-Overhead_L.wav lovel=72 hivel=83
<region> sample=Crash2_Edge_A_vel08_mic-Overhead_L.wav lovel=84 hivel=95
<region> sample=Crash2_Edge_A_vel09_mic-Overhead_L.wav lovel=96 hivel=107
<region> sample=Crash2_Edge_A_vel10_mic-Overhead_L.wav lovel=108 hivel=127
<group> seq_position=2 output=6 //  Round-Robin: B
<region> sample=Crash2_Edge_B_vel01_mic-Overhead_L.wav lovel=0 hivel=11
<region> sample=Crash2_Edge_B_vel02_mic-Overhead_L.wav lovel=12 hivel=23
<region> sample=Crash2_Edge_B_vel03_mic-Overhead_L.wav lovel=24 hivel=35
<region> sample=Crash2_Edge_B_vel04_mic-Overhead_L.wav lovel=36 hivel=47
<region> sample=Crash2_Edge_B_vel05_mic-Overhead_L.wav lovel=48 hivel=59
<region> sample=Crash2_Edge_B_vel06_mic-Overhead_L.wav lovel=60 hivel=71
<region> sample=Crash2_Edge_B_vel07_mic-Overhead_L.wav lovel=72 hivel=83
<region> sample=Crash2_Edge_B_vel08_mic-Overhead_L.wav lovel=84 hivel=95
<region> sample=Crash2_Edge_B_vel09_mic-Overhead_L.wav lovel=96 hivel=107
<region> sample=Crash2_Edge_B_vel10_mic-Overhead_L.wav lovel=108 hivel=127

// --- Mic: Overhead_R ---
<group> seq_position=1 output=6 //  Round-Robin: A
<region> sample=Crash2_Edge_A_vel01_mic-Overhead_R.wav lovel=0 hivel=11
<region> sample=Crash2_Edge_A_vel02_mic-Overhead_R.wav lovel=12 hivel=23
<region> sample=Crash2_Edge_A_vel03_mic-Overhead_R.wav lovel=24 hivel=35
<region> sample=Crash2_Edge_A_vel04_mic-Overhead_R.wav lovel=36 hivel=47
<region> sample=Crash2_Edge_A_vel05_mic-Overhead_R.wav lovel=48 hivel=59
<region> sample=Crash2_Edge_A_vel06_mic-Overhead_R.wav lovel=60 hivel=71
<region> sample=Crash2_Edge_A_vel07_mic-Overhead_R.wav lovel=72 hivel=83
<region> sample=Crash2_Edge_A_vel08_mic-Overhead_R.wav lovel=84 hivel=95
<region> sample=Crash2_Edge_A_vel09_mic-Overhead_R.wav lovel=96 hivel=107
<region> sample=Crash2_Edge_A_vel10_mic-Overhead_R.wav lovel=108 hivel=127
<group> seq_position=2 output=6 //  Round-Robin: B
<region> sample=Crash2_Edge_B_vel01_mic-Overhead_R.wav lovel=0 hivel=11
<region> sample=Crash2_Edge_B_vel02_mic-Overhead_R.wav lovel=12 hivel=23
<region> sample=Crash2_Edge_B_vel03_mic-Overhead_R.wav lovel=24 hivel=35
<region> sample=Crash2_Edge_B_vel04_mic-Overhead_R.wav lovel=36 hivel=47
<region> sample=Crash2_Edge_B_vel05_mic-Overhead_R.wav lovel=48 hivel=59
<region> sample=Crash2_Edge_B_vel06_mic-Overhead_R.wav lovel=60 hivel=71
<region> sample=Crash2_Edge_B_vel07_mic-Overhead_R.wav lovel=72 hivel=83
<region> sample=Crash2_Edge_B_vel08_mic-Overhead_R.wav lovel=84 hivel=95
<region> sample=Crash2_Edge_B_vel09_mic-Overhead_R.wav lovel=96 hivel=107
<region> sample=Crash2_Edge_B_vel10_mic-Overhead_R.wav lovel=108 hivel=127
